<svg id="Layer_1" data-name="Layer 1" xmlns="http://www.w3.org/2000/svg" viewBox="0 0 80 80"><defs><style>.cls-1,.cls-2{fill:#f28c46;}.cls-1{opacity:0.4;}</style></defs><title>drawco_voucher</title><rect class="cls-1" x="3" y="6" width="74" height="29" rx="4.62"/><path class="cls-1" d="M58.56,39.48H21.66A18.45,18.45,0,1,0,34.83,70.84H45.38A18.45,18.45,0,1,0,58.56,39.48Z"/><path class="cls-2" d="M32.73,60.23a1.38,1.38,0,0,1-1.38,1.39h-6v6A1.39,1.39,0,0,1,24,69H19.36A1.4,1.4,0,0,1,18,67.61v-6H12a1.39,1.39,0,0,1-1.39-1.39V55.62A1.39,1.39,0,0,1,12,54.24h6v-6a1.39,1.39,0,0,1,1.39-1.38H24a1.38,1.38,0,0,1,1.38,1.38v6h6a1.38,1.38,0,0,1,1.38,1.38Z"/><circle class="cls-2" cx="53.95" cy="62.54" r="5.53"/><circle class="cls-2" cx="63.17" cy="53.32" r="5.53"/><path class="cls-2" d="M9.67,27V13.42h5.82v1.94H11.61v9.7h3.88V27Z"/><path class="cls-2" d="M17.43,27V25.06h3.88v-9.7h-.64V16H20v.64h-.65v.65H17.43V15.36h.65v-.65h.65v-.65h.64v-.64h3.88V25.06h3.88V27Z"/><path class="cls-2" d="M29.07,27V21.18h.65v-.65h.65v-.64H31v-.65h4.53v-.65h.65V18h.64v-1.3h-.64V16h-.65v-.65H32.31V16h-.65v.64H31v.65H29.07V15.36h.65v-.65h.65v-.65H31v-.64h5.82v.64h.65v.65h.65v.65h.64v3.88h-.64v.65h-.65v.64h-.65v.65H32.31v.65h-.65v.65H31v2.58h5.82V23.12h1.94V27Z"/><path class="cls-2" d="M42.65,27v-.64H42v-.65h-.64v-.65h-.65V23.12h1.94v.65h.65v.65h.64v.64h3.24v-.64h.65v-.65h.64V22.48h-.64v-.65h-.65v-.65H44.59V19.24h2.59v-.65h.65V18h.64v-1.3h-.64V16h-.65v-.65H43.94V16H43.3v.64h-.65v.65H40.71V15.36h.65v-.65H42v-.65h.65v-.64h5.82v.64h.65v.65h.65v.65h.64v3.88h-.64v.65h-.65v.64h.65v.65h.64v3.88h-.64v.65h-.65v.65h-.65V27Z"/><path class="cls-2" d="M58.17,27V23.12H52.35V19.24H53v-.65h.64V18h.65V17.3h.65v-.65h.64V16h.65v-.65h.65v-.65h.65v-.65h.64v-.64h1.94v1.94h-.64V16h-.65v.64h-.65v.65h-.64V18h-.65v.64h-.65v.65h-.65v.65h-.64v1.29h3.23V19.24h1.94v1.94h1.94v1.94H60.11V27Z"/><path class="cls-2" d="M64,27V25.06h3.88v-9.7H64V13.42h5.82V27Z"/></svg>