<svg id="Layer_1" data-name="Layer 1" xmlns="http://www.w3.org/2000/svg" viewBox="0 0 80 80"><defs><style>.cls-1,.cls-2{fill:#f28c46;}.cls-2{opacity:0.4;}</style></defs><title>drawco_othergame</title><path class="cls-1" d="M21.13,48.6a1.28,1.28,0,0,0-1.28,1.28v5.53H14.32a1.26,1.26,0,0,0-1.27,1.28v4.25a1.19,1.19,0,0,0,.37.9,1.23,1.23,0,0,0,.9.38h5.53v5.53a1.26,1.26,0,0,0,.37.9,1.23,1.23,0,0,0,.91.37h4.25a1.23,1.23,0,0,0,.91-.37,1.26,1.26,0,0,0,.37-.9V62.22h5.53a1.23,1.23,0,0,0,.9-.38,1.2,1.2,0,0,0,.38-.9V56.69a1.24,1.24,0,0,0-.38-.91,1.22,1.22,0,0,0-.9-.37H26.66v-4a24.43,24.43,0,0,1-3.38-2.77Z"/><path class="cls-1" d="M57.93,58.17a4.83,4.83,0,0,0,2.27,1.32L56.61,55.9A4.83,4.83,0,0,0,57.93,58.17Z"/><path class="cls-1" d="M53,58a5.09,5.09,0,1,0,3.62,1.49A4.91,4.91,0,0,0,53,58Z"/><path class="cls-2" d="M33.26,43.2A13.5,13.5,0,0,0,40.12,45,13.65,13.65,0,0,0,47,43.21a14.35,14.35,0,0,0,2-1.41H31.26A13,13,0,0,0,33.26,43.2Z"/><path class="cls-2" d="M60.3,45a3.33,3.33,0,0,1,2.43,1L74,57.23a2.67,2.67,0,0,1,.31.36A16.6,16.6,0,0,0,72,50.3a17.11,17.11,0,0,0-10.43-8A22.71,22.71,0,0,1,60,45Z"/><path class="cls-2" d="M74,62.09l-3.14,3.14a3.44,3.44,0,0,1-4.87,0L60.2,59.49a5.13,5.13,0,0,1-3.59-3.59L54.73,54a3.29,3.29,0,0,1-1-2.43v-.32a23.39,23.39,0,0,1-13.61,4.2A23.51,23.51,0,0,1,28,52.23c-.47-.27-.92-.56-1.36-.86v4h5.53a1.22,1.22,0,0,1,.9.37,1.24,1.24,0,0,1,.38.91v4.25a1.2,1.2,0,0,1-.38.9,1.23,1.23,0,0,1-.9.38H26.66v5.53a1.26,1.26,0,0,1-.37.9,1.23,1.23,0,0,1-.91.37H21.13a1.23,1.23,0,0,1-.91-.37,1.26,1.26,0,0,1-.37-.9V62.22H14.32a1.23,1.23,0,0,1-.9-.38,1.19,1.19,0,0,1-.37-.9V56.69a1.26,1.26,0,0,1,1.27-1.28h5.53V49.88a1.28,1.28,0,0,1,1.28-1.28h2.15a24.65,24.65,0,0,1-4-5.1c-.21-.36-.4-.72-.59-1.09A17.12,17.12,0,0,0,8.53,50.3a17,17,0,0,0,6.22,23.24,16.59,16.59,0,0,0,8.51,2.29A16.76,16.76,0,0,0,29.9,74.5a16.26,16.26,0,0,0,5.48-3.78h9.78a16.26,16.26,0,0,0,5.48,3.78,16.8,16.8,0,0,0,6.65,1.33,16.61,16.61,0,0,0,8.51-2.29A17,17,0,0,0,72,67.32,16.59,16.59,0,0,0,74,62Zm-17.3,4.59a5.13,5.13,0,1,1,1.49-3.61A4.9,4.9,0,0,1,56.65,66.68Z"/><path class="cls-1" d="M25.51,48.61q.52.45,1.08.87a1.18,1.18,0,0,0-.3-.5A1.24,1.24,0,0,0,25.51,48.61Z"/><path class="cls-1" d="M66.65,54.56a5.11,5.11,0,0,0-8.72-3.62,4.83,4.83,0,0,0-1.42,2.75l5.9,5.9a4.83,4.83,0,0,0,2.75-1.42A4.91,4.91,0,0,0,66.65,54.56Z"/><path class="cls-1" d="M29.1,41.8A15.35,15.35,0,0,1,27,23.8a14.83,14.83,0,0,1,5.49-5.49,15.39,15.39,0,0,1,15.21,0,14.76,14.76,0,0,1,5.49,5.49,15.16,15.16,0,0,1-2.08,18h6.16a17,17,0,0,1,2.78.23A22.12,22.12,0,0,0,62.7,31.4a22,22,0,0,0-3-11.34,23,23,0,0,0-8.2-8.2,22.67,22.67,0,0,0-22.68,0,23,23,0,0,0-8.21,8.2,22.08,22.08,0,0,0-3,11.34,22,22,0,0,0,2.67,10.67,17,17,0,0,1,3.05-.27Z"/><path class="cls-1" d="M40.12,54A22,22,0,0,0,54,49.21l1.21-1v3.33A1.86,1.86,0,0,0,55.78,53l.73.72a4.83,4.83,0,0,1,1.42-2.75,5.11,5.11,0,0,1,7.23,7.23,4.83,4.83,0,0,1-2.75,1.42L67,64.18a1.86,1.86,0,0,0,1.38.57,1.9,1.9,0,0,0,1.38-.57L72.9,61a2,2,0,0,0,0-2.76L61.68,47.07a1.86,1.86,0,0,0-1.38-.57H57l1-1.2A23.31,23.31,0,0,0,60.07,42a17,17,0,0,0-2.78-.23H51.13a14.83,14.83,0,0,1-3.41,2.7,15.46,15.46,0,0,1-15.21,0,15.26,15.26,0,0,1-3.41-2.7H23.26a17,17,0,0,0-3.05.27c.12.22.23.45.36.67a22.79,22.79,0,0,0,4.94,5.87,1.24,1.24,0,0,1,.78.37,1.18,1.18,0,0,1,.3.5A23.89,23.89,0,0,0,28.78,51,22,22,0,0,0,40.12,54Z"/><path class="cls-1" d="M18.3,11.4h0l-3.94.06V7a1.84,1.84,0,1,0-3.67,0v4.5l-4.11.06a1.84,1.84,0,0,0,0,3.67h0l4.06-.06v4.23a1.84,1.84,0,0,0,3.67,0V15.13l4-.06a1.84,1.84,0,0,0,0-3.67Z"/></svg>