<svg id="Layer_1" data-name="Layer 1" xmlns="http://www.w3.org/2000/svg" viewBox="0 0 80 80"><defs><style>.cls-1{fill:#f28c46;}</style></defs><title>drawco_promo</title><path class="cls-1" d="M75.17,35l-5.42-4.6a6.15,6.15,0,0,1-2.15-5.19l.59-7.08a6.15,6.15,0,0,0-6.63-6.63l-7.09.58A6.17,6.17,0,0,1,49.28,9.9L44.69,4.48a6.16,6.16,0,0,0-9.38,0L30.72,9.9a6.17,6.17,0,0,1-5.19,2.15l-7.09-.58a6.15,6.15,0,0,0-6.63,6.63l.59,7.08a6.15,6.15,0,0,1-2.15,5.19L4.83,35a6.13,6.13,0,0,0,0,9.37l5.42,4.6a6.16,6.16,0,0,1,2.15,5.19l-.59,7.08a6.15,6.15,0,0,0,6.63,6.63l7.09-.58a6.17,6.17,0,0,1,5.19,2.15l4.59,5.42a6.16,6.16,0,0,0,9.38,0l4.59-5.42a6.17,6.17,0,0,1,5.19-2.15l7.09.58a6.15,6.15,0,0,0,6.63-6.63l-.59-7.08a6.16,6.16,0,0,1,2.15-5.19l5.42-4.6A6.13,6.13,0,0,0,75.17,35ZM27.71,21.07a6.3,6.3,0,1,1-6.3,6.29A6.29,6.29,0,0,1,27.71,21.07Zm24.38,37.1a6.3,6.3,0,1,1,6.29-6.29A6.29,6.29,0,0,1,52.09,58.17Zm6-32.43-32,32A2.88,2.88,0,0,1,22,53.7l32-32a2.88,2.88,0,1,1,4.07,4.07Z"/></svg>