<svg id="Layer_1" data-name="Layer 1" xmlns="http://www.w3.org/2000/svg" viewBox="0 0 80 80"><defs><style>.cls-1{fill:#f28c46;}</style></defs><title>drawco_</title><path class="cls-1" d="M77.17,27.29l0,11.7L2.27,38.72l0-11.7a7.19,7.19,0,0,1,7-7l11.7,0,0-7a7.2,7.2,0,0,1,7.05-7l23.39.09a7.19,7.19,0,0,1,7,7l0,7,11.69,0A7.2,7.2,0,0,1,77.17,27.29ZM49,43.57l28.08.1-.08,21a7.19,7.19,0,0,1-7,7L9.17,71.49a7.2,7.2,0,0,1-7-7L2.25,43.4l28.07.1,0,7a2.32,2.32,0,0,0,2.33,2.34l14,.06A2.35,2.35,0,0,0,49,50.58Zm.11-28.07-18.72-.07v4.68l18.71.06Z"/></svg>