<svg id="Layer_1" data-name="Layer 1" xmlns="http://www.w3.org/2000/svg" viewBox="0 0 80 80"><defs><style>.cls-1{fill:#f28c46;}</style></defs><title>drawco_howto</title><path class="cls-1" d="M40.18,78A38.24,38.24,0,1,1,78.42,39.76,38.23,38.23,0,0,1,40.18,78ZM23.24,24a1.86,1.86,0,0,0,.42,2.51l5.35,4a1.85,1.85,0,0,0,2.57-.32c2.75-3.5,4.64-5.52,8.83-5.52,3.15,0,7.05,2,7.05,5.08,0,2.31-1.91,3.49-5,5.24C38.81,37.07,34,39.6,34,45.93v.62a1.85,1.85,0,0,0,1.85,1.85H44.5a1.85,1.85,0,0,0,1.85-1.85v-.21c0-4.39,12.82-4.57,12.82-16.44,0-8.95-9.27-15.73-18-15.73C32.81,14.17,27.45,17.71,23.24,24Zm9.85,35.5a7.09,7.09,0,1,0,7.09-7.09A7.1,7.1,0,0,0,33.09,59.5Z"/></svg>