<svg xmlns="http://www.w3.org/2000/svg" viewBox="0 0 80 80"><title>drawco_esport</title><path d="M65.59,43.93a22.28,22.28,0,0,1-.67,4.21,32.25,32.25,0,0,1-6.87,12.57c-.39.46-.79.91-1.21,1.35a45.35,45.35,0,0,1-5.26,4.82,35.36,35.36,0,0,1-10.95,6l-.3.09h0L40,72.9a35.36,35.36,0,0,1-11-6,45.35,45.35,0,0,1-5.26-4.82c-.42-.44-.82-.89-1.21-1.35a32.25,32.25,0,0,1-6.87-12.57,22.28,22.28,0,0,1-.67-4.21l-2.61-.39a23.57,23.57,0,0,0,.77,5.23A35.19,35.19,0,0,0,20.8,62.54c.43.5.88,1,1.33,1.48a49.17,49.17,0,0,0,5.8,5.28A38.86,38.86,0,0,0,40,75.9l.34.1h0l.33-.1a38.79,38.79,0,0,0,12.07-6.6A49.17,49.17,0,0,0,58.53,64c.45-.48.89-1,1.32-1.48a35.2,35.2,0,0,0,7.58-13.77,24.17,24.17,0,0,0,.76-5.23Z" style="fill:#f28b47"/><path d="M16.78,20.47l.53-6.36h0c6.64-.07,23-7.27,23-7.27s16.38,7.2,23,7.27h0l.52,6.36,2.58.13-.75-9h0c-7.32-.07-25.37-7.94-25.37-7.94S22.27,11.5,15,11.57h0l-.75,9Z" style="fill:#f28b47"/><path d="M22.45,52.76v1.06a.46.46,0,0,1-.05.2.39.39,0,0,1-.11.17.42.42,0,0,1-.16.11.52.52,0,0,1-.21,0H20.16a.45.45,0,0,1-.2,0,.39.39,0,0,1-.17-.11.52.52,0,0,1-.12-.17.65.65,0,0,1,0-.2v-.53h.71v.35h1.4v-.7H20.16a.65.65,0,0,1-.2,0,.52.52,0,0,1-.17-.12.48.48,0,0,1-.12-.16.78.78,0,0,1,0-.21v-1a.5.5,0,0,1,.16-.38.71.71,0,0,1,.17-.11.45.45,0,0,1,.2,0h1.76a.52.52,0,0,1,.21,0,.91.91,0,0,1,.16.11.45.45,0,0,1,.11.17.46.46,0,0,1,.05.21v.52h-.71v-.35h-1.4v.7h1.58a.54.54,0,0,1,.21.05.57.57,0,0,1,.16.11.39.39,0,0,1,.11.17A.46.46,0,0,1,22.45,52.76Z" style="fill:#f28b47"/><path d="M25.65,53.58v.18a.81.81,0,0,1,0,.16.44.44,0,0,1-.06.16.58.58,0,0,1-.13.15.54.54,0,0,1-.18.1l-.18,0H23.65a2.07,2.07,0,0,1-.35,0,.48.48,0,0,1-.18-.05.58.58,0,0,1-.15-.11.54.54,0,0,1-.1-.16.53.53,0,0,1,0-.18V51.46a.78.78,0,0,1,0-.16,1,1,0,0,1,.07-.15.64.64,0,0,1,.14-.15.62.62,0,0,1,.17-.1.55.55,0,0,1,.17,0h1.43a2.19,2.19,0,0,1,.36,0,.64.64,0,0,1,.18.06.45.45,0,0,1,.14.1.55.55,0,0,1,.14.34v2.2Zm-.71.08V51.55h-1.4v2.11Z" style="fill:#f28b47"/><path d="M26.06,53.45V50.84h.7v2.81h1.41V50.84h.7v2.7a.92.92,0,0,1,0,.16v.16a.55.55,0,0,1,0,.09.45.45,0,0,1-.12.24.44.44,0,0,1-.22.14l-.2,0H26.63l-.18,0a.67.67,0,0,1-.24-.12.55.55,0,0,1-.12-.23.83.83,0,0,1,0-.27Z" style="fill:#f28b47"/><path d="M32,50.84v.7H31v2.81h-.7V51.54H29.19v-.7Z" style="fill:#f28b47"/><path d="M35.14,50.83v3.51h-.71v-1.4H33v1.4h-.71V50.83H33v1.4h1.4v-1.4Z" style="fill:#f28b47"/><path d="M38.17,53.65v.7H35.53V50.84h2.64v.7H36.24v.7h1.58V53H36.24v.7Z" style="fill:#f28b47"/><path d="M40.43,50.83l1.29,3.51H41l-.26-.7h-1.3l-.26.7h-.74l1.28-3.51Zm0,2.11-.39-1.08-.39,1.08Z" style="fill:#f28b47"/><path d="M44.78,52.76v1.06a.65.65,0,0,1,0,.2.52.52,0,0,1-.12.17.36.36,0,0,1-.16.11.49.49,0,0,1-.21,0H42.49a.45.45,0,0,1-.2,0A.48.48,0,0,1,42,54a.45.45,0,0,1,0-.2v-.53h.7v.35h1.41v-.7H42.49a.65.65,0,0,1-.2,0,.52.52,0,0,1-.17-.12.36.36,0,0,1-.11-.16.52.52,0,0,1,0-.21v-1a.46.46,0,0,1,0-.21.45.45,0,0,1,.11-.17.71.71,0,0,1,.17-.11.45.45,0,0,1,.2,0h1.76a.49.49,0,0,1,.21,0,.64.64,0,0,1,.16.11.5.5,0,0,1,.16.38v.52h-.7v-.35H42.67v.7h1.58a.5.5,0,0,1,.21.05.46.46,0,0,1,.16.11.52.52,0,0,1,.12.17A.65.65,0,0,1,44.78,52.76Z" style="fill:#f28b47"/><path d="M47.91,50.84v.7h-1v2.81h-.7V51.54H45.1v-.7Z" style="fill:#f28b47"/><path d="M52.05,50.83l1.28,3.51h-.75l-.25-.7H51l-.26.7H50l1.28-3.51Zm0,2.11-.39-1.08-.4,1.08Z" style="fill:#f28b47"/><path d="M56.4,52.76v1.06a.46.46,0,0,1,0,.2.39.39,0,0,1-.11.17.42.42,0,0,1-.16.11.52.52,0,0,1-.21,0H54.11a.45.45,0,0,1-.2,0,.39.39,0,0,1-.17-.11.52.52,0,0,1-.12-.17.65.65,0,0,1,0-.2v-.53h.71v.35h1.4v-.7H54.11a.65.65,0,0,1-.2,0,.52.52,0,0,1-.17-.12.48.48,0,0,1-.12-.16.78.78,0,0,1,0-.21v-1a.5.5,0,0,1,.16-.38.71.71,0,0,1,.17-.11.45.45,0,0,1,.2,0h1.76a.52.52,0,0,1,.21,0,.91.91,0,0,1,.16.11.45.45,0,0,1,.11.17.46.46,0,0,1,0,.21v.52h-.71v-.35h-1.4v.7h1.58a.54.54,0,0,1,.21.05.57.57,0,0,1,.16.11.39.39,0,0,1,.11.17A.46.46,0,0,1,56.4,52.76Z" style="fill:#f28b47"/><path d="M57.51,50.84v3.51h-.7V50.84Z" style="fill:#f28b47"/><path d="M59.81,50.83l1.28,3.51h-.75l-.25-.7h-1.3l-.26.7h-.75l1.28-3.51Zm0,2.11-.39-1.08L59,52.94Z" style="fill:#f28b47"/><path d="M25.85,55.67a.49.49,0,0,1,.32.12.47.47,0,0,1,.14.26,1.14,1.14,0,0,1,.05.33v.33h-.71v-.36h-1.4v2.11h1.4v-.35h.71v.34a1.35,1.35,0,0,1-.06.35.74.74,0,0,1-.16.27.5.5,0,0,1-.34.11H24.19a.8.8,0,0,1-.3-.06.62.62,0,0,1-.25-.17.49.49,0,0,1-.11-.33V56.76a2.53,2.53,0,0,1,0-.29c0-.09,0-.18,0-.29a.55.55,0,0,1,.39-.49,1.65,1.65,0,0,1,.32,0h1.57Z" style="fill:#f28b47"/><path d="M29.75,55.67l-1.25,2v1.53h-.7V57.65l-1.26-2h.84l.77,1.22.77-1.22Z" style="fill:#f28b47"/><path d="M32.84,56.14a2.48,2.48,0,0,1,0,.47c0,.16,0,.31,0,.47a.62.62,0,0,1-.05.25.64.64,0,0,1-.18.19.52.52,0,0,1,.18.18.63.63,0,0,1,.05.26v.7a.52.52,0,0,1,0,.21.64.64,0,0,1-.11.16.5.5,0,0,1-.38.16H30V55.67h2.36a.4.4,0,0,1,.22.08.49.49,0,0,1,.16.16A.52.52,0,0,1,32.84,56.14Zm-.7.94v-.71H30.73v.71h1.41Zm0,1.4v-.7H30.73v.7Z" style="fill:#f28b47"/><path d="M35.86,58.48v.71H33.22V55.67h2.64v.7H33.92v.71H35.5v.7H33.92v.7Z" style="fill:#f28b47"/><path d="M39,56.57V57a3.54,3.54,0,0,1,0,.45.52.52,0,0,1-.07.23.49.49,0,0,1-.16.16.49.49,0,0,1-.22.08h-.23l.68,1.23h-.8L37.45,58h-.54v1.23H36.2V55.66h2.19a.78.78,0,0,1,.22,0,.57.57,0,0,1,.18.12.76.76,0,0,1,.12.19.51.51,0,0,1,.05.22Zm-.72.67v-.87H36.91v.87Z" style="fill:#f28b47"/><path d="M43.14,55.66l1.28,3.52h-.74l-.26-.71h-1.3l-.26.71h-.75l1.29-3.52Zm0,2.11-.39-1.08-.39,1.08Z" style="fill:#f28b47"/><path d="M47.4,56.57c0,.15,0,.3,0,.45a3.54,3.54,0,0,1,0,.45.52.52,0,0,1-.07.23.49.49,0,0,1-.16.16.54.54,0,0,1-.22.08h-.23l.68,1.23h-.81L45.9,58h-.55v1.23h-.7V55.66h2.19a.78.78,0,0,1,.22,0,.57.57,0,0,1,.18.12.76.76,0,0,1,.12.19.51.51,0,0,1,0,.22Zm-.71.67v-.87H45.35v.87Z" style="fill:#f28b47"/><path d="M50.37,58.48v.71H47.73V55.67h2.64v.7H48.43v.71H50v.7H48.43v.7Z" style="fill:#f28b47"/><path d="M53.55,55.68v3.51h-.7L51.44,57v2.2h-.7V55.68h.7l1.41,2.19V55.68Z" style="fill:#f28b47"/><path d="M55.86,55.66l1.28,3.52h-.75l-.25-.71h-1.3l-.26.71h-.75l1.28-3.52Zm0,2.11-.39-1.08-.4,1.08Z" style="fill:#f28b47"/><path d="M21.23,31.83a4.14,4.14,0,0,0-2.38-.57H14.23a1.3,1.3,0,0,1-.68-.14.58.58,0,0,1,0-.92,1.43,1.43,0,0,1,.68-.13h5.89l1.69-2.21H14.43a6.59,6.59,0,0,0-1.66.19,3.21,3.21,0,0,0-1.13.54,2.09,2.09,0,0,0-.65.83,2.75,2.75,0,0,0-.21,1.09,2.46,2.46,0,0,0,.19,1,1.86,1.86,0,0,0,.59.77,2.71,2.71,0,0,0,1,.5A5,5,0,0,0,14,33H18.6a1.21,1.21,0,0,1,.68.14.61.61,0,0,1,0,.94,1.2,1.2,0,0,1-.68.15H11.53L9.84,36.37h8.55a6.59,6.59,0,0,0,1.66-.19,3.19,3.19,0,0,0,1.14-.55,2.09,2.09,0,0,0,.65-.88,3.34,3.34,0,0,0,.2-1.17A2,2,0,0,0,21.23,31.83Z" style="fill:#f28b47"/><polygon points="25.7 34.18 25.7 33.02 29.23 33.02 30.74 31.09 25.7 31.09 25.7 30.07 31.23 30.07 32.93 27.86 23.05 27.86 23.05 36.37 31.24 36.37 32.93 34.18 25.7 34.18" style="fill:#f28b47"/><path d="M51.05,34.18a3.12,3.12,0,0,1-1-.15,2.33,2.33,0,0,1-.8-.41,1.88,1.88,0,0,1-.52-.64,1.9,1.9,0,0,1-.18-.83,1.79,1.79,0,0,1,.19-.84,2,2,0,0,1,.52-.66,2.38,2.38,0,0,1,.79-.42,3.11,3.11,0,0,1,1-.16H54.1l1.69-2.21H51.05a6.73,6.73,0,0,0-2,.3,4.8,4.8,0,0,0-1.62.85,4.06,4.06,0,0,0-1.07,1.33A3.78,3.78,0,0,0,45.93,32a4,4,0,0,0,.38,1.72,4.35,4.35,0,0,0,1.07,1.38A5.09,5.09,0,0,0,49,36a6.16,6.16,0,0,0,2,.33h4.27L57,34.18Z" style="fill:#f28b47"/><path d="M70.82,36.37,65.5,28.68a2.45,2.45,0,0,0-.68-.68,1.65,1.65,0,0,0-1-.28,1.68,1.68,0,0,0-1,.3,2.85,2.85,0,0,0-.68.66l-5.45,7.69h3.12l4-5.65,1.27,1.89H63.53L62,34.79h4.61l1.08,1.58Z" style="fill:#f28b47"/><path d="M40.73,28a1.92,1.92,0,0,0-2,0,2.8,2.8,0,0,0-.67.66l-5.45,7.69h3.11l4-5.65L41,32.61H39.44l-1.59,2.18h4.61l1.09,1.58h3.17l-5.31-7.69A2.59,2.59,0,0,0,40.73,28Z" style="fill:#f28b47"/><path d="M34.11,15.57a2.07,2.07,0,0,1-.16.82,1.8,1.8,0,0,1-.45.67,2.12,2.12,0,0,1-.74.46,3,3,0,0,1-1,.17,3.34,3.34,0,0,1-.87-.11,1.72,1.72,0,0,1-.67-.35,1.62,1.62,0,0,1-.42-.62,2.67,2.67,0,0,1-.15-.95V11.84h1.06v3.93a2.48,2.48,0,0,0,.07.68.82.82,0,0,0,.22.39.69.69,0,0,0,.35.18,2.43,2.43,0,0,0,.49,0,2,2,0,0,0,.58-.07,1.25,1.25,0,0,0,.4-.2.62.62,0,0,0,.21-.4,4,4,0,0,0,0-.65v-3.9h1.07Z" style="fill:#f28b47"/><path d="M37.45,17.57V15.11a.92.92,0,0,0-.1-.49.41.41,0,0,0-.36-.15l-.2,0-.22.07-.21.1-.2.12v2.79h-1V13.89h.94l.09.43h0l.26-.15a2.55,2.55,0,0,1,.33-.17l.37-.13a1.73,1.73,0,0,1,.38,0,1,1,0,0,1,.39.07.83.83,0,0,1,.32.2,1.05,1.05,0,0,1,.22.34,1.32,1.32,0,0,1,.08.47v2.67Z" style="fill:#f28b47"/><path d="M39.93,11.81l.66.69-.66.69-.66-.69Zm.54,5.76h-1V13.89h1Z" style="fill:#f28b47"/><path d="M42.76,14.94l.15,0a2.22,2.22,0,0,0,.39-.12.94.94,0,0,0,.32-.23,1.13,1.13,0,0,0,.21-.41,2.22,2.22,0,0,0,.08-.64,1.17,1.17,0,0,0-.25-.84.87.87,0,0,0-.66-.27h-.2l-.22,0v5.19H41.52V11.87l.36,0,.41,0,.42,0h.41a2.66,2.66,0,0,1,.84.12,1.52,1.52,0,0,1,.59.32,1.54,1.54,0,0,1,.35.52,2.06,2.06,0,0,1,.11.68,2,2,0,0,1-.13.75,1.65,1.65,0,0,1-.38.62,1.9,1.9,0,0,1-.66.41,2.76,2.76,0,0,1-1,.15h-.05Z" style="fill:#f28b47"/><path d="M46.17,11.81l.66.69-.66.69-.66-.69Zm.54,5.76h-1V13.89h1Z" style="fill:#f28b47"/><path d="M50,17.57V15.11a.91.91,0,0,0-.11-.49.4.4,0,0,0-.35-.15l-.2,0-.22.07-.22.1-.2.12v2.79h-1V13.89h.93l.09.43h0l.26-.15.34-.17a3.19,3.19,0,0,1,.37-.13,1.57,1.57,0,0,1,.37,0,1,1,0,0,1,.39.07.83.83,0,0,1,.32.2.91.91,0,0,1,.22.34,1.32,1.32,0,0,1,.08.47v2.67Z" style="fill:#f28b47"/><path d="M74.63,41.37,72.47,20.79h0c-9.27,0-32.14-2.08-32.14-2.08S17.46,20.76,8.19,20.79h0L6,41.37a1.29,1.29,0,0,0,1,1.38l33.25,4.91h0l33.25-4.91A1.3,1.3,0,0,0,74.63,41.37Zm-2.74-.07L40.33,45.53h0L8.77,41.3a1.16,1.16,0,0,1-1-1.22L9.88,22.32h0c8.78,0,30.45-1.84,30.45-1.84S62,22.29,70.78,22.32h0l2.1,17.76A1.15,1.15,0,0,1,71.89,41.3Z" style="fill:#f28b47"/></svg>