<svg xmlns="http://www.w3.org/2000/svg" viewBox="0 0 80 80"><title>drawco_reseller</title><path d="M74.19,37.63a3.56,3.56,0,0,1-1.93,1.69c-1,.44-1.92,1-2.9,1.44A1.6,1.6,0,0,1,67,39.92q-4.71-9.84-9.39-19.7c-.65-1.38-.41-2,.94-2.68,1.06-.54,2.12-1.09,3.19-1.61a1.69,1.69,0,0,1,2.64.92Q69.19,26.89,74,37a2.62,2.62,0,0,0,.24.34Z" style="fill:#f28b47"/><path d="M5.82,37.14c1.11-2.27,2.23-4.53,3.33-6.81q3.27-6.75,6.53-13.51c.65-1.35,1.41-1.61,2.74-1,1,.52,2.08,1.06,3.12,1.59,1.34.68,1.58,1.34.9,2.76-1.21,2.54-2.45,5.07-3.68,7.6q-2.82,5.84-5.63,11.68c-.68,1.4-1.41,1.67-2.8,1C9.21,39.93,8.07,39.4,7,38.75a6.54,6.54,0,0,1-1.18-1.27Z" style="fill:#f28b47"/><path d="M23.37,24.87c.48-1,.79-1.81,1.23-2.53a1.32,1.32,0,0,1,1-.44c2.71,0,5.41,0,8.12,0a7.22,7.22,0,0,0,2.37-.49c2.27-.87,4.53-1.84,7-1.49,2,.3,4,.87,6.08,1.27,1.86.36,3.74.62,5.61,1a1.27,1.27,0,0,1,.83.53q4.32,8.91,8.56,17.86a2.53,2.53,0,0,1,0,1.28,1.47,1.47,0,0,1-.25.54,2.87,2.87,0,0,0-.06,3.44c1.7,2.73-.32,6.31-3.61,6.76-.61.08-.82.23-.85.86a4.07,4.07,0,0,1-4.22,3.92c-.8,0-1.1.2-1.31,1a4.29,4.29,0,0,1-6.35,2.41l-.84-.54c-.17.25-.32.45-.45.65a4.22,4.22,0,0,1-5.48,1.56c-.76-.38-1.1-.18-1.49.45a2.8,2.8,0,0,1-2.9,1.53,2.77,2.77,0,0,1-2.44-3.31,3.79,3.79,0,0,0,.07-.74c-1.43,1.64-3.05,2.46-5,1-1.46-1.11-1.35-2.62-.51-4.41-1.69,1.42-3.32,1.76-4.91.53-1.39-1.08-1.51-2.58-.77-4.38-.37.22-.55.31-.71.42a3.32,3.32,0,0,1-4.31-.23,3.23,3.23,0,0,1-.36-4.35c.64-.9,1.27-1.82,2-2.69a.89.89,0,0,0,0-1.33c-1-1.13-1.83-2.33-2.79-3.46a1.1,1.1,0,0,1-.18-1.5,15.47,15.47,0,0,0,.81-1.67c.28.33.5.57.7.82,1.1,1.38,2.22,2.75,3.29,4.15a1.12,1.12,0,0,0,1.16.49,3.19,3.19,0,0,1,3.87,3.54c0,1.29.23,1.59,1.51,1.61A3.25,3.25,0,0,1,31,51.79a1.47,1.47,0,0,0,1.73,1.39,2.92,2.92,0,0,1,3.11,2.14c.28,1.4,1.38,1.82,2.37,2.45a6.45,6.45,0,0,1,1.7,1.3c.93,1.19,2.28,1.88,3.35,1.45a2.49,2.49,0,0,0,1-.76A.92.92,0,0,0,44,58.25c-1.59-1.09-3.15-2.24-4.73-3.37a6.64,6.64,0,0,1-.6-.48c-.43-.42-.76-.91-.33-1.5a1.09,1.09,0,0,1,1.6-.2c1,.66,2,1.4,3,2.11L48,58.46c1.4,1,2.6.95,3.39-.11s.49-2.3-.92-3.31l-8.25-5.93a5,5,0,0,1-.66-.54c-.41-.43-.64-.9-.21-1.44a1,1,0,0,1,1.45-.24c.49.29,1,.62,1.41,1,3.14,2.26,6.28,4.54,9.43,6.79,1.5,1.07,3.33.4,3.53-1.28A2.3,2.3,0,0,0,56,51.14Q50.36,47.09,44.73,43a4.67,4.67,0,0,1-.6-.48,1,1,0,0,1-.22-1.37,1,1,0,0,1,1.44-.31,10.54,10.54,0,0,1,1.29.84c3.62,2.61,7.24,5.24,10.89,7.82a4.3,4.3,0,0,0,1.91.8A2.26,2.26,0,0,0,62,48.83a2.47,2.47,0,0,0-.66-2.95c-1.53-1.36-3.09-2.7-4.63-4.05C52.44,38.14,48.17,34.5,44,30.7a5.31,5.31,0,0,0-3.67-1.77,3.61,3.61,0,0,0-3.72,3,7.47,7.47,0,0,1-5,5.7,4.35,4.35,0,0,1-3.87-.32A1.65,1.65,0,0,1,27,34.89a13.42,13.42,0,0,0,1.12-4.95,8.21,8.21,0,0,1,1.34-4.18c.16-.23.29-.47.55-.88Z" style="fill:#f28b47"/></svg>