<svg xmlns="http://www.w3.org/2000/svg" viewBox="0 0 80 80"><title>drawco_reseller</title><path d="M51.57,11H45.12c-3.37,0-6.12.4-6.12,7V62c0,6.6,2.75,7,6.12,7h6" style="fill:none;stroke:#f5d3bb;stroke-linecap:round;stroke-miterlimit:10;stroke-width:6px"/><path d="M66.38,5.08A9.22,9.22,0,1,0,75.6,14.3,9.22,9.22,0,0,0,66.38,5.08Zm.56,13.33v1.06a.29.29,0,0,1-.3.29h-.71a.29.29,0,0,1-.3-.29v-1a6.19,6.19,0,0,1-1.82-.36.55.55,0,0,1-.34-.67l.11-.46a.58.58,0,0,1,.29-.36.59.59,0,0,1,.47,0,4.48,4.48,0,0,0,1.64.32c.76,0,1.29-.29,1.29-.83s-.43-.83-1.43-1.17c-1.43-.48-2.42-1.15-2.42-2.45a2.49,2.49,0,0,1,2.27-2.39v-1A.32.32,0,0,1,66,8.81h.71a.3.3,0,0,1,.29.31V10a5.07,5.07,0,0,1,1.45.25.56.56,0,0,1,.38.68l-.1.4a.54.54,0,0,1-.28.36.57.57,0,0,1-.46,0,4,4,0,0,0-1.35-.22c-.88,0-1.16.37-1.16.75s.47.72,1.61,1.15c1.6.57,2.24,1.31,2.24,2.51A2.57,2.57,0,0,1,66.94,18.41Z" style="fill:#f28c46"/><path d="M66.38,57.13a9.22,9.22,0,1,0,9.22,9.22A9.22,9.22,0,0,0,66.38,57.13Zm.56,13.33v1.07a.28.28,0,0,1-.3.28h-.71a.28.28,0,0,1-.3-.28v-1a6.19,6.19,0,0,1-1.82-.36.55.55,0,0,1-.34-.67l.11-.45a.6.6,0,0,1,.29-.37.59.59,0,0,1,.47,0A4.69,4.69,0,0,0,66,69c.76,0,1.29-.29,1.29-.83s-.43-.83-1.43-1.17c-1.43-.48-2.42-1.15-2.42-2.45a2.49,2.49,0,0,1,2.27-2.39v-1a.32.32,0,0,1,.31-.32h.71a.3.3,0,0,1,.29.32v.87a5.07,5.07,0,0,1,1.45.25.56.56,0,0,1,.38.68l-.1.41a.59.59,0,0,1-.28.36.61.61,0,0,1-.46,0,4.31,4.31,0,0,0-1.35-.22c-.88,0-1.16.37-1.16.75s.47.73,1.61,1.15c1.6.57,2.24,1.31,2.24,2.51A2.57,2.57,0,0,1,66.94,70.46Z" style="fill:#f28c46"/><path d="M66.38,31.17a9.22,9.22,0,1,0,9.22,9.22A9.22,9.22,0,0,0,66.38,31.17Zm.56,13.33v1.07a.29.29,0,0,1-.3.29h-.71a.29.29,0,0,1-.3-.29v-1a6.19,6.19,0,0,1-1.82-.36.57.57,0,0,1-.34-.68l.11-.45a.6.6,0,0,1,.29-.37.59.59,0,0,1,.47,0A4.69,4.69,0,0,0,66,43c.76,0,1.29-.3,1.29-.83s-.43-.84-1.43-1.17c-1.43-.49-2.42-1.16-2.42-2.46a2.49,2.49,0,0,1,2.27-2.39v-1A.32.32,0,0,1,66,34.9h.71a.3.3,0,0,1,.29.32v.88a5.5,5.5,0,0,1,1.45.24.56.56,0,0,1,.38.68l-.1.41a.59.59,0,0,1-.28.36.61.61,0,0,1-.46,0,4,4,0,0,0-1.35-.23c-.88,0-1.16.38-1.16.75s.47.73,1.61,1.16c1.6.56,2.24,1.3,2.24,2.51A2.57,2.57,0,0,1,66.94,44.5Z" style="fill:#f28c46"/><line x1="39" y1="40.39" x2="50.73" y2="40.39" style="fill:none;stroke:#f5d3bb;stroke-linecap:round;stroke-miterlimit:10;stroke-width:6px"/><path d="M38.47,44.83a10.25,10.25,0,0,1,3.82,3.83A10.39,10.39,0,0,1,43.69,54v1.32a3.93,3.93,0,0,1-3.95,4H5.49a3.84,3.84,0,0,1-2.8-1.15,3.83,3.83,0,0,1-1.16-2.8V54a10.48,10.48,0,0,1,1.4-5.31,10.28,10.28,0,0,1,3.83-3.83,10.48,10.48,0,0,1,5.31-1.4H16.6a14.36,14.36,0,0,0,12,0h4.52A10.49,10.49,0,0,1,38.47,44.83ZM16.69,39.19a12,12,0,0,1-4.33-4.32,11.79,11.79,0,0,1,0-11.86,12,12,0,0,1,4.33-4.32,11.71,11.71,0,0,1,11.85,0A12.11,12.11,0,0,1,32.87,23a11.79,11.79,0,0,1,0,11.86,12.11,12.11,0,0,1-4.33,4.32,11.77,11.77,0,0,1-11.85,0Z" style="fill:#f28c46"/></svg>