<svg id="Layer_1" data-name="Layer 1" xmlns="http://www.w3.org/2000/svg" viewBox="0 0 80 80"><defs><style>.cls-1{opacity:0.4;}.cls-2{fill:#f28c46;}</style></defs><title>drawco_support</title><g class="cls-1"><path class="cls-2" d="M62.68,50.54A14.71,14.71,0,0,1,68.16,56a15,15,0,0,1,2,7.6v1.89a5.63,5.63,0,0,1-5.66,5.66h-49a5.63,5.63,0,0,1-5.66-5.66V63.62a15,15,0,0,1,2-7.6,14.71,14.71,0,0,1,5.48-5.48,15,15,0,0,1,7.6-2H31.4a20.51,20.51,0,0,0,17.2,0h6.48A15,15,0,0,1,62.68,50.54ZM31.52,42.47a17.22,17.22,0,0,1-6.19-6.18,16.8,16.8,0,0,1,0-17,17.24,17.24,0,0,1,6.19-6.19,16.78,16.78,0,0,1,17,0,17.24,17.24,0,0,1,6.19,6.19,16.8,16.8,0,0,1,0,17,17.22,17.22,0,0,1-6.19,6.18,16.78,16.78,0,0,1-17,0Z"/></g><path class="cls-2" d="M63.42,26.93V41.86A8.13,8.13,0,0,1,55.28,50H38.9a4.33,4.33,0,0,1,0-8.65h2.89a4.31,4.31,0,0,1,4.32,4.32h9.17a3.8,3.8,0,0,0,3.81-3.81s0-14.72,0-14.93h0a18.75,18.75,0,1,0-37.49,0v1.44a1.45,1.45,0,0,1-1.45,1.44H18.71a1.45,1.45,0,0,1-1.44-1.44V26.93c.41-12.37,10.2-23.08,23.07-23.08S63,14.56,63.42,26.93ZM27.58,32.69a2.89,2.89,0,0,1-2.89,2.89H23.25a5.77,5.77,0,0,1-5.77-5.77V25.48a5.77,5.77,0,0,1,5.77-5.77h1.44a2.9,2.9,0,0,1,2.89,2.89ZM56,35.58a2.89,2.89,0,0,1-2.89-2.89V22.6A2.89,2.89,0,0,1,56,19.71h1.44a5.77,5.77,0,0,1,5.77,5.77v4.33a5.77,5.77,0,0,1-5.77,5.77Z"/></svg>