<svg xmlns="http://www.w3.org/2000/svg" viewBox="0 0 80 80"><title>drawco_career</title><path d="M77.24,69.32l-15-15a2.51,2.51,0,0,0-1.85-.76H55.88l1.27-1.62A31.26,31.26,0,0,0,60,47.51a29.53,29.53,0,0,0,3.52-14.25A29.6,29.6,0,0,0,59.48,18a30.79,30.79,0,0,0-11-11A29.5,29.5,0,0,0,33.26,3,29.51,29.51,0,0,0,18,7,30.76,30.76,0,0,0,7,18,29.51,29.51,0,0,0,3,33.26,29.67,29.67,0,0,0,6.54,47.57c.17.3.32.61.5.9a30.54,30.54,0,0,0,6.62,7.88c.47.4.95.79,1.45,1.17a32.49,32.49,0,0,0,2.93,2,29.61,29.61,0,0,0,15.22,4.08A29.48,29.48,0,0,0,51.9,57.15l1.62-1.27v4.46a2.49,2.49,0,0,0,.76,1.85l1,1,7.92,7.91,6.15,6.16a2.64,2.64,0,0,0,3.71,0L77.24,73a2.64,2.64,0,0,0,0-3.71ZM43.46,50.83a20.33,20.33,0,0,1-25-3.63A20.12,20.12,0,0,1,13,33.26a20.13,20.13,0,0,1,2.69-10.21,19.91,19.91,0,0,1,7.36-7.36,20.7,20.7,0,0,1,20.41,0,19.94,19.94,0,0,1,7.37,7.36,20.7,20.7,0,0,1,0,20.41,20.3,20.3,0,0,1-7.37,7.37Z" style="fill:#f28c46"/><g style="opacity:0.4"><path d="M44.53,36.41A6.88,6.88,0,0,1,47.07,39,7,7,0,0,1,48,42.48v.87A2.63,2.63,0,0,1,45.37,46H22.62A2.61,2.61,0,0,1,20,43.35v-.87A7,7,0,0,1,20.93,39a6.88,6.88,0,0,1,2.54-2.54A7,7,0,0,1,27,35.48h3a9.58,9.58,0,0,0,8,0h3A7,7,0,0,1,44.53,36.41ZM30.06,32.66a8.05,8.05,0,0,1-2.87-2.87,7.77,7.77,0,0,1,0-7.87A8.08,8.08,0,0,1,30.06,19a7.85,7.85,0,0,1,7.88,0,8.08,8.08,0,0,1,2.87,2.88,7.83,7.83,0,0,1,0,7.87,8.05,8.05,0,0,1-2.87,2.87,7.79,7.79,0,0,1-7.88,0Z" style="fill:#f28c46"/></g></svg>