<svg id="Layer_1" data-name="Layer 1" xmlns="http://www.w3.org/2000/svg" viewBox="0 0 80 80"><defs><style>.cls-1{fill:#f28c46;}</style></defs><title>drawco_reward</title><path class="cls-1" d="M74.91,27.75a4.39,4.39,0,0,1,1.34,3.19V42.27A2.17,2.17,0,0,1,74,44.53H6a2.17,2.17,0,0,1-2.26-2.26V30.94a4.35,4.35,0,0,1,1.34-3.19A4.4,4.4,0,0,1,8.28,26.4h6.23A12.18,12.18,0,0,1,16.78,12a12,12,0,0,1,8.78-3.68,12.85,12.85,0,0,1,7.64,2.41,31.78,31.78,0,0,1,6.94,7.22,31.78,31.78,0,0,1,6.94-7.22,12.9,12.9,0,0,1,7.65-2.41A12,12,0,0,1,63.51,12a12,12,0,0,1,3.68,8.78,12.45,12.45,0,0,1-1.42,5.66h6A4.4,4.4,0,0,1,74.91,27.75ZM8.28,49.06H35.47V71.72H12.81a4.58,4.58,0,0,1-4.53-4.53ZM37.73,26.4a79.07,79.07,0,0,0-5.8-7.78,11.74,11.74,0,0,0-3.54-3,6.43,6.43,0,0,0-2.83-.56,5.55,5.55,0,0,0-5.67,5.66,5.55,5.55,0,0,0,5.67,5.66Zm21-1.62a5.47,5.47,0,0,0,1.63-4,5.55,5.55,0,0,0-5.66-5.66,6.4,6.4,0,0,0-2.83.56,11.51,11.51,0,0,0-3.54,3,77.27,77.27,0,0,0-5.81,7.78H54.73A5.48,5.48,0,0,0,58.76,24.78ZM44.53,49.06H71.72V67.19a4.58,4.58,0,0,1-4.53,4.53H44.53Z"/></svg>