<svg id="Layer_1" data-name="Layer 1" xmlns="http://www.w3.org/2000/svg" viewBox="0 0 80 80"><defs><style>.cls-1{fill:#f28c46;}</style></defs><title>drawco_channel</title><path class="cls-1" d="M74.63,22.77V57.4a3.48,3.48,0,0,1-3.52,3.47A3.75,3.75,0,0,1,70,60.69a33.16,33.16,0,0,0-10.12-1.5C46.42,59.19,33,66,19.53,66a32.4,32.4,0,0,1-12.7-2.45,3.47,3.47,0,0,1-2.06-3.22V25.7a3.47,3.47,0,0,1,3.52-3.47,3.75,3.75,0,0,1,1.13.18A33.08,33.08,0,0,0,19.53,23.9c13.45,0,26.89-6.8,40.33-6.8a32.41,32.41,0,0,1,12.71,2.45A3.47,3.47,0,0,1,74.63,22.77ZM10,34.64A7,7,0,0,0,16.85,29,37.33,37.33,0,0,1,10,28Zm7,26a7,7,0,0,0-7-6.7v5.22A26,26,0,0,0,17,60.63ZM48.43,41.55c0-5.79-3.91-10.48-8.73-10.48S31,35.76,31,41.55,34.87,52,39.7,52,48.43,47.34,48.43,41.55Zm21-17.6a26.58,26.58,0,0,0-6.09-1.38,7,7,0,0,0,6.09,6.72Zm0,24.81a7,7,0,0,0-5.93,5.38,37.2,37.2,0,0,1,5.93.92Z"/></svg>